<svg width="694" height="438" viewBox="0 0 694 438" fill="none" xmlns="http://www.w3.org/2000/svg">
<path fill-rule="evenodd" clip-rule="evenodd" d="M219 0H694V438H219H216V437.98C96.4325 436.375 0 338.949 0 219C0 99.0512 96.4325 1.62546 216 0.0201284V0H219Z" fill="#E3B971"/>
<path fill-rule="evenodd" clip-rule="evenodd" d="M537.309 438C572.49 400.083 594 349.304 594 293.5C594 176.139 498.86 81 381.5 81C264.139 81 169 176.139 169 293.5C169 349.304 190.51 400.083 225.691 438H537.309Z" fill="#EDC37B"/>
<path fill-rule="evenodd" clip-rule="evenodd" d="M423.962 438C490.482 419.999 539.418 359.214 539.418 287C539.418 200.613 469.387 130.582 383 130.582C296.613 130.582 226.582 200.613 226.582 287C226.582 359.214 275.519 419.999 342.039 438H423.962Z" fill="#EFCA8B"/>
<circle cx="383" cy="287" r="103.458" fill="#F8D495"/>
</svg>
