<svg width="20" height="19" viewBox="0 0 20 19" fill="none" xmlns="http://www.w3.org/2000/svg">
<path d="M14.0836 5.14575H14.0915M5.77108 1.58325H13.6877C15.8739 1.58325 17.6461 3.35546 17.6461 5.54159V13.4583C17.6461 15.6444 15.8739 17.4166 13.6877 17.4166H5.77108C3.58495 17.4166 1.81274 15.6444 1.81274 13.4583V5.54159C1.81274 3.35546 3.58495 1.58325 5.77108 1.58325ZM12.8961 9.00117C12.9938 9.66003 12.8812 10.3329 12.5745 10.9241C12.2677 11.5154 11.7823 11.9948 11.1874 12.2942C10.5924 12.5937 9.91818 12.6979 9.26058 12.5921C8.60297 12.4863 7.99547 12.1758 7.52449 11.7048C7.05351 11.2339 6.74303 10.6264 6.63721 9.96875C6.5314 9.31115 6.63563 8.63692 6.93509 8.04196C7.23454 7.44701 7.71398 6.96163 8.30519 6.65486C8.89641 6.34809 9.5693 6.23555 10.2282 6.33325C10.9002 6.43291 11.5224 6.74608 12.0028 7.22649C12.4833 7.70691 12.7964 8.3291 12.8961 9.00117Z" stroke="#F7F9FB" stroke-width="1.58333" stroke-linecap="round" stroke-linejoin="round"/>
</svg>
