<svg width="20" height="19" viewBox="0 0 20 19" fill="none" xmlns="http://www.w3.org/2000/svg">
<path d="M12.9996 6.33325C14.2594 6.33325 15.4676 6.8337 16.3584 7.72449C17.2491 8.61529 17.7496 9.82347 17.7496 11.0833V16.6249H14.5829V11.0833C14.5829 10.6633 14.4161 10.2606 14.1192 9.96367C13.8222 9.66673 13.4195 9.49992 12.9996 9.49992C12.5797 9.49992 12.1769 9.66673 11.88 9.96367C11.5831 10.2606 11.4163 10.6633 11.4163 11.0833V16.6249H8.24959V11.0833C8.24959 9.82347 8.75004 8.61529 9.64084 7.72449C10.5316 6.8337 11.7398 6.33325 12.9996 6.33325Z" fill="#F7F9FB"/>
<path d="M5.08293 7.12492H1.91626V16.6249H5.08293V7.12492Z" fill="#F7F9FB"/>
<path d="M3.49959 4.74992C4.37404 4.74992 5.08293 4.04104 5.08293 3.16659C5.08293 2.29213 4.37404 1.58325 3.49959 1.58325C2.62514 1.58325 1.91626 2.29213 1.91626 3.16659C1.91626 4.04104 2.62514 4.74992 3.49959 4.74992Z" fill="#F7F9FB"/>
</svg>
